<?xml version="1.0" encoding="iso-8859-1"?>
<!-- Generator: Adobe Illustrator 19.0.0, SVG Export Plug-In . SVG Version: 6.00 Build 0)  -->
<svg version="1.1" id="Capa_1" xmlns="http://www.w3.org/2000/svg" xmlns:xlink="http://www.w3.org/1999/xlink" x="0px" y="0px"
	 viewBox="0 0 511.971 511.971" style="enable-background:new 0 0 511.971 511.971;" xml:space="preserve">
<path style="fill:#D75E72;" d="M95.214,284.217L284.237,95.194c21.014-21.014,55.084-21.014,76.098,0l56.463,56.463
	c10.091,10.091,15.76,23.778,15.76,38.049s-5.669,27.958-15.76,38.049L227.775,416.778c-21.014,21.014-55.084,21.014-76.098,0
	l-56.463-56.463C74.2,339.302,74.2,305.231,95.214,284.217z"/>
<g>
	<path style="fill:#802D40;" d="M132.311,248.924c40.166,41.666,91.101,94.632,128,132.943l-26.483,26.483
		c-36.899-38.312-87.834-91.277-128-132.943L132.311,248.924z"/>
	<path style="fill:#802D40;" d="M202.931,178.303c40.166,41.666,91.101,94.632,128,132.943l-26.483,26.483
		c-36.899-38.312-87.835-91.277-128-132.943L202.931,178.303z"/>
	<path style="fill:#802D40;" d="M273.552,107.683c40.166,41.666,91.101,94.632,128,132.943l-26.483,26.483
		c-36.899-38.312-87.834-91.277-128-132.943L273.552,107.683z"/>
</g>
<g>
	<path style="fill:#FB7B76;" d="M379.571,115.451L409.144,6.96c0.904-3.262,3.475-5.796,6.75-6.651s6.757,0.098,9.14,2.502
		l14.919,14.919l13.153,13.153l25.423,25.423l13.948,13.948l16.684,16.684c2.404,2.383,3.357,5.865,2.502,9.14
		c-0.855,3.275-3.389,5.846-6.651,6.75L396.52,132.4"/>
	<path style="fill:#FB7B76;" d="M132.399,396.521l-29.572,108.491c-0.903,3.262-3.475,5.796-6.75,6.651s-6.757-0.098-9.14-2.502
		L70.606,492.83l-13.153-13.153L30.176,452.4l-13.594-13.594L2.81,425.034c-2.404-2.383-3.357-5.865-2.502-9.14
		c0.855-3.275,3.389-5.846,6.651-6.75l108.491-29.572"/>
</g>
<g>
	<path style="fill:#DF4D60;" d="M51.362,445.338L30.176,452.4l-13.594-13.594c0.791-0.625,1.688-1.103,2.648-1.412l26.483-8.828
		c4.631-1.56,9.651,0.93,11.211,5.561S55.993,443.778,51.362,445.338L51.362,445.338z"/>
	<path style="fill:#DF4D60;" d="M82.876,468.113l-12.27,24.717l-13.153-13.153l9.71-19.421c1.387-2.836,4.188-4.71,7.339-4.909
		c3.151-0.199,6.166,1.309,7.897,3.949C84.131,461.936,84.313,465.302,82.876,468.113L82.876,468.113z"/>
	<path style="fill:#DF4D60;" d="M492.476,70.254l-26.218,8.739c-0.918,0.269-1.868,0.418-2.825,0.441
		c-3.798,0.02-7.18-2.401-8.386-6.002c-1.516-4.628,0.959-9.618,5.561-11.211l17.92-5.914L492.476,70.254z"/>
	<path style="fill:#DF4D60;" d="M453.105,30.883l-8.298,16.419c-1.466,2.996-4.521,4.884-7.857,4.855
		c-1.373,0.004-2.73-0.297-3.972-0.881c-4.335-2.197-6.073-7.49-3.884-11.83l10.858-21.716L453.105,30.883z"/>
</g>
<g>
</g>
<g>
</g>
<g>
</g>
<g>
</g>
<g>
</g>
<g>
</g>
<g>
</g>
<g>
</g>
<g>
</g>
<g>
</g>
<g>
</g>
<g>
</g>
<g>
</g>
<g>
</g>
<g>
</g>
</svg>
